<?xml version="1.0" encoding="utf-8"?>
<!-- Generator: Adobe Illustrator 18.1.1, SVG Export Plug-In . SVG Version: 6.00 Build 0)  -->
<svg version="1.1" id="Layer_1" xmlns="http://www.w3.org/2000/svg" xmlns:xlink="http://www.w3.org/1999/xlink" x="0px" y="0px"
	 viewBox="0 0 64 64" enable-background="new 0 0 64 64" xml:space="preserve">
<g>
	<rect x="-64" y="0" fill="none" width="64" height="64"/>
</g>
<g>
	<rect x="0" y="0" fill="none" width="64" height="64"/>
	<g id="palette_4_">
		<path fill="#E02E2D" d="M32,0C20.3,0,10.9,9.4,10.9,21.1c0,11.7,9.4,21.1,21.1,21.1c1.9,0,3.5-1.6,3.5-3.5c0-0.9-0.2-1.6-0.9-2.3
			c-0.5-0.7-0.9-1.4-0.9-2.3c0-1.9,1.6-3.5,3.5-3.5h4.2c6.6,0,11.7-5.2,11.7-11.7C53.1,8.4,43.7,0,32,0z M19.1,21.1
			c-1.9,0-3.5-1.6-3.5-3.5c0-1.9,1.6-3.5,3.5-3.5c1.9,0,3.5,1.6,3.5,3.5C22.6,19.4,21,21.1,19.1,21.1z M26.1,11.7
			c-1.9,0-3.5-1.6-3.5-3.5c0-1.9,1.6-3.5,3.5-3.5c1.9,0,3.5,1.6,3.5,3.5C29.7,10.1,28,11.7,26.1,11.7z M37.9,11.7
			c-1.9,0-3.5-1.6-3.5-3.5c0-1.9,1.6-3.5,3.5-3.5c1.9,0,3.5,1.6,3.5,3.5C41.4,10.1,39.7,11.7,37.9,11.7z M44.9,21.1
			c-1.9,0-3.5-1.6-3.5-3.5c0-1.9,1.6-3.5,3.5-3.5c1.9,0,3.5,1.6,3.5,3.5C48.4,19.4,46.8,21.1,44.9,21.1z"/>
	</g>
</g>
<g>
	<rect x="64" y="0" fill="none" width="64" height="64"/>
</g>
<g>
	<polyline fill="none" points="0,0 0,-64 64,-64 64,0 	"/>
</g>
<g>
	<polyline fill="none" points="64,0 64,-64 128,-64 128,0 	"/>
</g>
</svg>
