<?xml version="1.0" encoding="utf-8"?>
<!-- Generator: Adobe Illustrator 18.1.1, SVG Export Plug-In . SVG Version: 6.00 Build 0)  -->
<svg version="1.1" xmlns="http://www.w3.org/2000/svg" xmlns:xlink="http://www.w3.org/1999/xlink" x="0px" y="0px" width="60px"
	 height="60px" viewBox="0 0 60 60" style="enable-background:new 0 0 60 60;" xml:space="preserve">
<style type="text/css">
	.st0{fill-rule:evenodd;clip-rule:evenodd;fill:#DF2E2D;}
	.st1{fill-rule:evenodd;clip-rule:evenodd;fill:#D1D1D1;}
	.st2{fill-rule:evenodd;clip-rule:evenodd;fill:none;}
	.st3{fill:#E02E2D;}
	.st4{fill:#D2D2D2;}
	.st5{fill:#FFFFFF;}
	.st6{fill:none;}
	.st7{fill-rule:evenodd;clip-rule:evenodd;fill:#8E8E8E;}
	.st8{fill-rule:evenodd;clip-rule:evenodd;fill:#FFFFFF;}
	.st9{fill-rule:evenodd;clip-rule:evenodd;fill:#C7C7C7;}
	.st10{fill-rule:evenodd;clip-rule:evenodd;fill:#D51723;}
	.st11{fill-rule:evenodd;clip-rule:evenodd;fill:#7B7B7B;}
	.st12{fill-rule:evenodd;clip-rule:evenodd;fill:#F4F4F4;}
	.st13{fill-rule:evenodd;clip-rule:evenodd;fill:#404040;}
	.st14{fill-rule:evenodd;clip-rule:evenodd;fill:none;stroke:#7B7B7B;stroke-width:1.0366;stroke-miterlimit:22.9256;}
</style>
<g id="_x23_Layer_1">
</g>
<g id="_x23_Layer_1_1_">
</g>
<g id="Layer_1">
</g>
<g id="_x23_Layer_1_2_">
</g>
<g id="_x23_Layer_1_3_">
</g>
<g id="_x23_Layer_1_4_">
</g>
<g id="_x23_Layer_1_5_">
</g>
<g id="_x23_Layer_1_6_">
</g>
<g id="_x23_Layer_1_7_">
</g>
<g id="_x23_Layer_1_8_">
</g>
<g id="_x23_Layer_1_9_">
</g>
<g id="_x23_Layer_1_10_">
</g>
<g id="_x23_Layer_1_11_">
</g>
<g id="_x23_Layer_1_12_">
</g>
<g id="_x23_Layer_1_13_">
</g>
<g id="_x23_Layer_1_14_">
</g>
<g id="_x23_Layer_1_15_">
</g>
<g id="_x23_Layer_1_16_">
</g>
<g id="_x23_Layer_1_17_">
</g>
<g id="_x23_Layer_1_18_">
</g>
<g id="_x23_Layer_1_19_">
</g>
<g id="_x23_Layer_1_20_">
</g>
<g id="_x23_Layer_1_21_">
</g>
<g id="_x23_Layer_1_22_">
</g>
<g id="_x23_Layer_1_23_">
</g>
<g id="_x23_Layer_1_24_">
	<g>
		<path class="st8" d="M60,55.5c0,2.4-2.1,4.5-4.5,4.5h-51C2.1,60,0,57.9,0,55.5v-51C0,2.1,2.1,0,4.5,0h51C57.9,0,60,2.1,60,4.5
			V55.5z"/>
		<path class="st9" d="M19.5,30c0-1.7-1.3-3-3-3s-3,1.3-3,3c0,1.7,1.3,3,3,3S19.5,31.7,19.5,30z"/>
		<path class="st9" d="M33,30c0-1.7-1.3-3-3-3c-1.7,0-3,1.3-3,3c0,1.7,1.3,3,3,3C31.7,33,33,31.7,33,30z"/>
		<path class="st9" d="M46.5,30c0-1.7-1.3-3-3-3c-1.7,0-3,1.3-3,3c0,1.7,1.3,3,3,3C45.2,33,46.5,31.7,46.5,30z"/>
	</g>
</g>
<g id="_x23_Layer_1_25_">
</g>
<g id="_x23_Layer_1_26_">
</g>
</svg>
