<?xml version="1.0" encoding="utf-8"?>
<!-- Generator: Adobe Illustrator 18.1.1, SVG Export Plug-In . SVG Version: 6.00 Build 0)  -->
<svg version="1.1" xmlns="http://www.w3.org/2000/svg" xmlns:xlink="http://www.w3.org/1999/xlink" x="0px" y="0px" width="860px"
	 height="86px" viewBox="0 0 860 86" style="enable-background:new 0 0 860 86;" xml:space="preserve">
<style type="text/css">
	.st0{fill-rule:evenodd;clip-rule:evenodd;fill:#DF2E2D;}
	.st1{fill-rule:evenodd;clip-rule:evenodd;fill:#D1D1D1;}
	.st2{fill-rule:evenodd;clip-rule:evenodd;fill:none;}
	.st3{fill:#E02E2D;}
	.st4{fill:#D2D2D2;}
	.st5{fill:#FFFFFF;}
	.st6{fill:none;}
	.st7{fill-rule:evenodd;clip-rule:evenodd;fill:#8E8E8E;}
	.st8{fill-rule:evenodd;clip-rule:evenodd;fill:#FFFFFF;}
	.st9{fill-rule:evenodd;clip-rule:evenodd;fill:#C7C7C7;}
	.st10{fill-rule:evenodd;clip-rule:evenodd;fill:#D51723;}
	.st11{fill-rule:evenodd;clip-rule:evenodd;fill:#7B7B7B;}
	.st12{fill-rule:evenodd;clip-rule:evenodd;fill:#F4F4F4;}
	.st13{fill-rule:evenodd;clip-rule:evenodd;fill:#404040;}
	.st14{fill-rule:evenodd;clip-rule:evenodd;fill:none;stroke:#7B7B7B;stroke-width:1.0366;stroke-miterlimit:22.9256;}
</style>
<g id="_x23_Layer_1">
	<g>
		<g>
			<g>
				<polygon class="st0" points="649.2,6.7 663.5,6.7 663.5,15.1 669.7,15.1 669.7,0 620.3,0 620.3,15.2 626.5,15.2 626.5,6.7 
					641.8,6.7 641.8,50.4 635,50.4 635,56.6 655.7,56.6 655.7,50.4 649.2,50.4 				"/>
			</g>
			<g>
				<polygon class="st1" points="219.2,6.7 233.5,6.7 233.5,15.1 239.7,15.1 239.7,0 190.3,0 190.3,15.2 196.5,15.2 196.5,6.7 
					211.8,6.7 211.8,50.4 205,50.4 205,56.6 225.7,56.6 225.7,50.4 219.2,50.4 				"/>
			</g>
			<g>
				<g>
					<g>
						<path class="st0" d="M815.1,52.8l-4.4,3.9h-12.1l-4.3-3.9V23.7l4.4-3.9h12.1l4.4,3.9v29.2H815.1L815.1,52.8z M808.2,49.9
							L808.2,49.9V26.6h-7.3v23.2H808.2z"/>
						<path class="st0" d="M839.6,52.8l-4.4,3.9h-12.1l-4.3-3.9V23.7l4.4-3.9h12.1l4.4,3.9v29.2H839.6L839.6,52.8z M832.9,49.9
							L832.9,49.9V26.6h-7.3v23.2H832.9z"/>
					</g>
					<g>
						<polygon class="st0" points="800.7,16.8 797.3,8.1 797.3,16.8 794.2,16.8 794.2,0 797.6,0 800.9,8.9 800.9,0 804,0 804,16.8 
													"/>
						<path class="st0" d="M813.4,16.8l-0.8-3.8h-3.2l-0.8,3.8h-3.2L808.9,0h4.3l3.4,16.8H813.4L813.4,16.8z M812,9.9L812,9.9L811,5
							l-0.9,5H812z"/>
						<polygon class="st0" points="829.7,16.8 826.6,16.8 826.6,7.4 823.9,13.2 821.2,7.4 821.2,16.8 818.1,16.8 818.1,0 821.2,0 
							823.9,5.8 826.6,0 829.7,0 						"/>
						<polygon class="st0" points="839.6,16.8 831.6,16.8 831.6,0 839.6,0 839.6,3.1 834.7,3.1 834.7,6.9 839,6.9 839,9.9 
							834.7,9.9 834.7,13.7 839.6,13.7 						"/>
					</g>
				</g>
			</g>
			<g>
				<g>
					<g>
						<path class="st1" d="M385.1,52.8l-4.4,3.9h-12.1l-4.3-3.9V23.7l4.4-3.9h12.1l4.4,3.9v29.2H385.1L385.1,52.8z M378.2,49.9
							L378.2,49.9V26.6h-7.3v23.2H378.2z"/>
						<path class="st1" d="M409.6,52.8l-4.4,3.9h-12.1l-4.3-3.9V23.7l4.4-3.9h12.1l4.4,3.9v29.2H409.6L409.6,52.8z M402.9,49.9
							L402.9,49.9V26.6h-7.3v23.2H402.9z"/>
					</g>
					<g>
						<polygon class="st1" points="370.7,16.8 367.3,8.1 367.3,16.8 364.2,16.8 364.2,0 367.6,0 370.9,8.9 370.9,0 374,0 374,16.8 
													"/>
						<path class="st1" d="M383.4,16.8l-0.8-3.8h-3.2l-0.8,3.8h-3.2L378.9,0h4.3l3.4,16.8H383.4L383.4,16.8z M382,9.9L382,9.9L381,5
							l-0.9,5H382z"/>
						<polygon class="st1" points="399.7,16.8 396.6,16.8 396.6,7.4 393.9,13.2 391.2,7.4 391.2,16.8 388.1,16.8 388.1,0 391.2,0 
							393.9,5.8 396.6,0 399.7,0 						"/>
						<polygon class="st1" points="409.6,16.8 401.6,16.8 401.6,0 409.6,0 409.6,3.1 404.7,3.1 404.7,6.9 409,6.9 409,9.9 
							404.7,9.9 404.7,13.7 409.6,13.7 						"/>
					</g>
				</g>
			</g>
			<g>
				<g>
					<g>
						<g>
							<path class="st0" d="M759.6,2v52.7h-57.1V2H759.6L759.6,2z M761.6,0L761.6,0h-61.1v56.7h61.1V0z"/>
						</g>
					</g>
					<g>
						<path class="st0" d="M741.5,13.7c0,3.5,2.8,6.3,6.3,6.3c3.5,0,6.3-2.8,6.3-6.3c0-3.5-2.8-6.3-6.3-6.3
							C744.3,7.5,741.5,10.3,741.5,13.7z"/>
						<polygon class="st0" points="761.6,56.7 741.9,28.4 734.8,36.8 721.5,17.6 701.2,56.7 						"/>
					</g>
				</g>
			</g>
			<g>
				<g>
					<g>
						<g>
							<path class="st1" d="M329.6,2v52.7h-57.1V2H329.6L329.6,2z M331.6,0L331.6,0h-61.1v56.7l61.1,0V0z"/>
						</g>
					</g>
					<path class="st1" d="M311.5,13.7c0,3.5,2.8,6.3,6.3,6.3c3.5,0,6.3-2.8,6.3-6.3s-2.8-6.3-6.3-6.3
						C314.3,7.4,311.5,10.3,311.5,13.7z"/>
					<polygon class="st1" points="331.6,56.7 311.9,28.4 304.8,36.8 291.5,17.6 270.5,56.7 					"/>
				</g>
			</g>
			<g>
				<g>
					<path class="st0" d="M559,0c-15.7,0-28.4,12.6-28.4,28.4c0,15.7,12.6,28.4,28.4,28.4c2.6,0,4.7-2.1,4.7-4.7
						c0-1.2-0.3-2.1-1.2-3.1c-0.7-0.9-1.2-1.9-1.2-3.1c0-2.6,2.1-4.7,4.7-4.7l5.6,0c8.9,0,15.7-7,15.7-15.7
						C587.4,11.3,574.7,0,559,0L559,0z M541.7,28.4L541.7,28.4c-2.6,0-4.7-2.2-4.7-4.7c0-2.6,2.1-4.7,4.7-4.7c2.6,0,4.7,2.2,4.7,4.7
						C546.4,26.1,544.2,28.4,541.7,28.4L541.7,28.4z M551.1,15.7L551.1,15.7c-2.6,0-4.7-2.1-4.7-4.7c0-2.6,2.2-4.7,4.7-4.7
						c2.6,0,4.7,2.1,4.7,4.7C555.9,13.6,553.6,15.7,551.1,15.7L551.1,15.7z M566.9,15.7L566.9,15.7c-2.6,0-4.7-2.1-4.7-4.7
						c0-2.6,2.2-4.7,4.7-4.7c2.6,0,4.7,2.1,4.7,4.7C571.6,13.6,569.3,15.7,566.9,15.7L566.9,15.7z M576.3,28.4L576.3,28.4
						c-2.6,0-4.7-2.2-4.7-4.7c0-2.6,2.1-4.7,4.7-4.7c2.6,0,4.7,2.2,4.7,4.7C581,26.1,578.9,28.4,576.3,28.4z"/>
				</g>
			</g>
			<g>
				<g>
					<path class="st1" d="M129,0c-15.7,0-28.4,12.6-28.4,28.4c0,15.7,12.6,28.4,28.4,28.4c2.6,0,4.7-2.2,4.7-4.7
						c0-1.2-0.3-2.1-1.2-3.1c-0.7-0.9-1.2-1.9-1.2-3.1c0-2.6,2.2-4.7,4.7-4.7h5.6c8.9,0,15.7-7,15.7-15.7C157.4,11.3,144.7,0,129,0
						L129,0z M111.7,28.4L111.7,28.4c-2.6,0-4.7-2.2-4.7-4.7s2.1-4.7,4.7-4.7c2.6,0,4.7,2.2,4.7,4.7
						C116.4,26.1,114.2,28.4,111.7,28.4L111.7,28.4z M121.1,15.7L121.1,15.7c-2.6,0-4.7-2.1-4.7-4.7c0-2.6,2.1-4.7,4.7-4.7
						c2.6,0,4.7,2.1,4.7,4.7C125.9,13.6,123.6,15.7,121.1,15.7L121.1,15.7z M136.9,15.7L136.9,15.7c-2.6,0-4.7-2.1-4.7-4.7
						c0-2.6,2.1-4.7,4.7-4.7c2.6,0,4.7,2.1,4.7,4.7C141.6,13.6,139.4,15.7,136.9,15.7L136.9,15.7z M146.3,28.4L146.3,28.4
						c-2.6,0-4.7-2.2-4.7-4.7s2.2-4.7,4.7-4.7c2.6,0,4.7,2.2,4.7,4.7C151,26.1,148.9,28.4,146.3,28.4z"/>
				</g>
			</g>
			<g>
				<path class="st0" d="M496.5,7.1c-2-3.4-6.3-4.7-6.3-4.7L480.5,0c0,0-2.4,5-7.4,5c-4.8,0-7.4-5-7.4-5l-9.8,2.4
					c0,0-4.3,1.3-6.3,4.7c-3.2,5.4-8.3,12.8-8.3,12.8l9.3,5.6l5.4-8.1v39.1l34.3,0V29.7V17.5l5.4,8.1l9.1-5.6
					C504.8,19.9,499.7,12.5,496.5,7.1z"/>
			</g>
			<g>
				<path class="st1" d="M66.6,7.1c-2-3.4-6.3-4.7-6.3-4.7L50.6,0c0,0-2.4,5-7.4,5c-4.8,0-7.4-5-7.4-5L26,2.4c0,0-4.3,1.3-6.3,4.7
					c-3.2,5.4-8.3,12.8-8.3,12.8l9.1,5.6l5.4-8.1v39.1h34.3V29.7V17.5l5.4,8.1l9.1-5.6C74.9,19.9,69.8,12.5,66.6,7.1z"/>
			</g>
		</g>
		<rect x="0" y="0" class="st2" width="860" height="86"/>
	</g>
</g>
<g id="_x23_Layer_1_1_">
</g>
<g id="Layer_1">
</g>
<g id="_x23_Layer_1_2_">
</g>
<g id="_x23_Layer_1_3_">
</g>
<g id="_x23_Layer_1_4_">
</g>
<g id="_x23_Layer_1_5_">
</g>
<g id="_x23_Layer_1_6_">
</g>
<g id="_x23_Layer_1_7_">
</g>
<g id="_x23_Layer_1_8_">
</g>
<g id="_x23_Layer_1_9_">
</g>
<g id="_x23_Layer_1_10_">
</g>
<g id="_x23_Layer_1_11_">
</g>
<g id="_x23_Layer_1_12_">
</g>
<g id="_x23_Layer_1_13_">
</g>
<g id="_x23_Layer_1_14_">
</g>
<g id="_x23_Layer_1_15_">
</g>
<g id="_x23_Layer_1_16_">
</g>
<g id="_x23_Layer_1_17_">
</g>
<g id="_x23_Layer_1_18_">
</g>
<g id="_x23_Layer_1_19_">
</g>
<g id="_x23_Layer_1_20_">
</g>
<g id="_x23_Layer_1_21_">
</g>
<g id="_x23_Layer_1_22_">
</g>
<g id="_x23_Layer_1_23_">
</g>
<g id="_x23_Layer_1_24_">
</g>
<g id="_x23_Layer_1_25_">
</g>
<g id="_x23_Layer_1_26_">
</g>
</svg>
