<?xml version="1.0" encoding="utf-8"?>
<!-- Generator: Adobe Illustrator 18.1.1, SVG Export Plug-In . SVG Version: 6.00 Build 0)  -->
<svg version="1.1" xmlns="http://www.w3.org/2000/svg" xmlns:xlink="http://www.w3.org/1999/xlink" x="0px" y="0px" width="840px"
	 height="60px" viewBox="0 0 840 60" style="enable-background:new 0 0 840 60;" xml:space="preserve">
<style type="text/css">
	.st0{fill-rule:evenodd;clip-rule:evenodd;fill:#DF2E2D;}
	.st1{fill-rule:evenodd;clip-rule:evenodd;fill:#D1D1D1;}
	.st2{fill-rule:evenodd;clip-rule:evenodd;fill:none;}
	.st3{fill:#E02E2D;}
	.st4{fill:#D2D2D2;}
	.st5{fill:#FFFFFF;}
	.st6{fill:none;}
	.st7{fill-rule:evenodd;clip-rule:evenodd;fill:#8E8E8E;}
	.st8{fill-rule:evenodd;clip-rule:evenodd;fill:#FFFFFF;}
	.st9{fill-rule:evenodd;clip-rule:evenodd;fill:#C7C7C7;}
	.st10{fill-rule:evenodd;clip-rule:evenodd;fill:#D51723;}
	.st11{fill-rule:evenodd;clip-rule:evenodd;fill:#7B7B7B;}
	.st12{fill-rule:evenodd;clip-rule:evenodd;fill:#F4F4F4;}
	.st13{fill-rule:evenodd;clip-rule:evenodd;fill:#404040;}
	.st14{fill-rule:evenodd;clip-rule:evenodd;fill:none;stroke:#7B7B7B;stroke-width:1.0366;stroke-miterlimit:22.9256;}
</style>
<g id="_x23_Layer_1">
</g>
<g id="_x23_Layer_1_1_">
</g>
<g id="Layer_1">
</g>
<g id="_x23_Layer_1_2_">
</g>
<g id="_x23_Layer_1_3_">
</g>
<g id="_x23_Layer_1_4_">
</g>
<g id="_x23_Layer_1_5_">
</g>
<g id="_x23_Layer_1_6_">
</g>
<g id="_x23_Layer_1_7_">
</g>
<g id="_x23_Layer_1_8_">
</g>
<g id="_x23_Layer_1_9_">
</g>
<g id="_x23_Layer_1_10_">
</g>
<g id="_x23_Layer_1_11_">
</g>
<g id="_x23_Layer_1_12_">
</g>
<g id="_x23_Layer_1_13_">
</g>
<g id="_x23_Layer_1_14_">
</g>
<g id="_x23_Layer_1_15_">
</g>
<g id="_x23_Layer_1_16_">
</g>
<g id="_x23_Layer_1_17_">
</g>
<g id="_x23_Layer_1_18_">
</g>
<g id="_x23_Layer_1_19_">
</g>
<g id="_x23_Layer_1_20_">
</g>
<g id="_x23_Layer_1_21_">
</g>
<g id="_x23_Layer_1_22_">
</g>
<g id="_x23_Layer_1_23_">
	<g>
		<rect x="128.2" y="11" class="st9" width="43.8" height="2"/>
		<rect x="141" y="20" class="st9" width="31" height="2"/>
		<rect x="151.4" y="29" class="st9" width="20.6" height="2"/>
		<rect x="128.2" y="38" class="st9" width="43.8" height="2"/>
		<rect x="143.6" y="47" class="st9" width="28.4" height="2"/>
		<rect x="68.2" y="11" class="st9" width="43.8" height="2"/>
		<rect x="76" y="20" class="st9" width="28.2" height="2"/>
		<rect x="79.8" y="29" class="st9" width="20.6" height="2"/>
		<rect x="68.2" y="38" class="st9" width="43.8" height="2"/>
		<rect x="77.2" y="47" class="st9" width="25.8" height="2"/>
		<rect x="8.2" y="11" class="st9" width="43.8" height="2"/>
		<rect x="8.2" y="20" class="st9" width="30.8" height="2"/>
		<rect x="8.2" y="29" class="st9" width="20.6" height="2"/>
		<rect x="8.2" y="38" class="st9" width="43.8" height="2"/>
		<rect x="8.2" y="47" class="st9" width="28.4" height="2"/>
		<rect x="180" y="0" class="st8" width="60" height="60"/>
		<polygon class="st9" points="213.8,11 226.4,11 226.4,18.4 231.8,18.4 231.8,5 188.4,5 188.4,18.4 193.8,18.4 193.8,11 207.4,11 
			207.4,49.6 201.4,49.6 201.4,55 219.6,55 219.6,49.6 213.8,49.6 		"/>
		<path class="st9" d="M269,16.8c0-0.6,0.4-1,1-1c0.6,0,1,0.4,1,1v26.4c0,0.6-0.4,1-1,1c-0.6,0-1-0.4-1-1V16.8z"/>
		<path class="st9" d="M283.2,29c0.6,0,1,0.4,1,1c0,0.6-0.4,1-1,1h-26.4c-0.6,0-1-0.4-1-1c0-0.6,0.4-1,1-1H283.2z"/>
		<path class="st9" d="M319.6,30c0-1.7-1.3-3-3-3c-1.7,0-3,1.3-3,3c0,1.7,1.3,3,3,3C318.2,33,319.6,31.6,319.6,30z"/>
		<path class="st9" d="M333,30c0-1.7-1.3-3-3-3c-1.7,0-3,1.3-3,3c0,1.7,1.3,3,3,3C331.6,33,333,31.6,333,30z"/>
		<path class="st9" d="M346.6,30c0-1.7-1.3-3-3-3c-1.7,0-3,1.3-3,3c0,1.7,1.3,3,3,3C345.2,33,346.6,31.6,346.6,30z"/>
		<rect x="488.2" y="11" class="st10" width="43.8" height="2"/>
		<rect x="501" y="20" class="st10" width="31" height="2"/>
		<rect x="511.4" y="29" class="st10" width="20.6" height="2"/>
		<rect x="488.2" y="38" class="st10" width="43.8" height="2"/>
		<rect x="503.6" y="47" class="st10" width="28.4" height="2"/>
		<rect x="428.2" y="11" class="st10" width="43.8" height="2"/>
		<rect x="436" y="20" class="st10" width="28.2" height="2"/>
		<rect x="439.8" y="29" class="st10" width="20.6" height="2"/>
		<rect x="428.2" y="38" class="st10" width="43.8" height="2"/>
		<rect x="437.2" y="47" class="st10" width="25.8" height="2"/>
		<rect x="368.2" y="11" class="st10" width="43.8" height="2"/>
		<rect x="368.2" y="20" class="st10" width="30.8" height="2"/>
		<rect x="368.2" y="29" class="st10" width="20.6" height="2"/>
		<rect x="368.2" y="38" class="st10" width="43.8" height="2"/>
		<rect x="368.2" y="47" class="st10" width="28.4" height="2"/>
		<path class="st8" d="M780,30c0,16.6-13.4,30-30,30c-16.6,0-30-13.4-30-30c0-16.4,13.4-30,30-30C766.6,0,780,13.6,780,30z"/>
		<rect x="540" y="0" class="st8" width="60" height="60"/>
		<polygon class="st10" points="573.8,11 586.4,11 586.4,18.4 591.8,18.4 591.8,5 548.4,5 548.4,18.4 553.8,18.4 553.8,11 567.4,11 
			567.4,49.6 561.4,49.6 561.4,55 579.6,55 579.6,49.6 573.8,49.6 		"/>
		<g>
			<path class="st8" d="M810,2.9c14.9,0,27.1,12.2,27.1,27.1c0,14.9-12.2,27.1-27.1,27.1c-14.9,0-27.1-12.2-27.1-27.1
				C782.9,15.1,795.1,2.9,810,2.9L810,2.9z M810,1L810,1c-16.1,0-29,13.2-29,29c0,16.1,13,29,29,29c16.1,0,29-13,29-29
				C839,14.1,826,1,810,1z"/>
		</g>
		<path class="st8" d="M840,30c0,8.3-3.4,15.8-8.8,21.2c-5.5,5.5-13,8.8-21.2,8.8c-8.3,0-15.8-3.4-21.2-8.8
			c-5.4-5.4-8.8-12.9-8.8-21.2c0-8.2,3.4-15.7,8.8-21.2C794.2,3.4,801.7,0,810,0c8.3,0,15.8,3.4,21.2,8.8
			C836.6,14.3,840,21.8,840,30L840,30z M829.8,49.8L829.8,49.8c5.1-5.1,8.2-12.1,8.2-19.8c0-7.7-3.2-14.7-8.3-19.8
			c-5.1-5.1-12.1-8.2-19.8-8.2c-7.7,0-14.7,3.2-19.8,8.2c-5.1,5.1-8.3,12.1-8.3,19.8c0,7.8,3.1,14.8,8.2,19.9
			c5.1,5.1,12.1,8.2,19.9,8.2C817.7,58.1,824.7,54.9,829.8,49.8z"/>
		<path class="st10" d="M629,16.8c0-0.6,0.4-1,1-1c0.6,0,1,0.4,1,1v26.4c0,0.6-0.4,1-1,1c-0.6,0-1-0.4-1-1V16.8z"/>
		<path class="st10" d="M643.2,29c0.6,0,1,0.4,1,1c0,0.6-0.4,1-1,1h-26.4c-0.6,0-1-0.4-1-1c0-0.6,0.4-1,1-1H643.2z"/>
		<path class="st10" d="M679.6,30c0-1.7-1.3-3-3-3c-1.7,0-3,1.3-3,3c0,1.7,1.3,3,3,3C678.2,33,679.6,31.6,679.6,30z"/>
		<path class="st10" d="M693,30c0-1.7-1.3-3-3-3c-1.7,0-3,1.3-3,3c0,1.7,1.3,3,3,3C691.6,33,693,31.6,693,30z"/>
		<path class="st10" d="M706.6,30c0-1.7-1.3-3-3-3c-1.7,0-3,1.3-3,3c0,1.7,1.3,3,3,3C705.2,33,706.6,31.6,706.6,30z"/>
	</g>
</g>
<g id="_x23_Layer_1_24_">
</g>
<g id="_x23_Layer_1_25_">
</g>
<g id="_x23_Layer_1_26_">
</g>
</svg>
