<?xml version="1.0" encoding="utf-8"?>
<!-- Generator: Adobe Illustrator 18.1.1, SVG Export Plug-In . SVG Version: 6.00 Build 0)  -->
<svg version="1.1" xmlns="http://www.w3.org/2000/svg" xmlns:xlink="http://www.w3.org/1999/xlink" x="0px" y="0px"
	 width="1364.8px" height="60px" viewBox="0 0 1364.8 60" style="enable-background:new 0 0 1364.8 60;" xml:space="preserve">
<style type="text/css">
	.st0{fill-rule:evenodd;clip-rule:evenodd;fill:#DF2E2D;}
	.st1{fill-rule:evenodd;clip-rule:evenodd;fill:#D1D1D1;}
	.st2{fill-rule:evenodd;clip-rule:evenodd;fill:none;}
	.st3{fill:#E02E2D;}
	.st4{fill:#D2D2D2;}
	.st5{fill:#FFFFFF;}
	.st6{fill:none;}
	.st7{fill-rule:evenodd;clip-rule:evenodd;fill:#8E8E8E;}
	.st8{fill-rule:evenodd;clip-rule:evenodd;fill:#FFFFFF;}
	.st9{fill-rule:evenodd;clip-rule:evenodd;fill:#C7C7C7;}
	.st10{fill-rule:evenodd;clip-rule:evenodd;fill:#D51723;}
	.st11{fill-rule:evenodd;clip-rule:evenodd;fill:#7B7B7B;}
	.st12{fill-rule:evenodd;clip-rule:evenodd;fill:#F4F4F4;}
	.st13{fill-rule:evenodd;clip-rule:evenodd;fill:#404040;}
	.st14{fill-rule:evenodd;clip-rule:evenodd;fill:none;stroke:#7B7B7B;stroke-width:1.0366;stroke-miterlimit:22.9256;}
</style>
<g id="_x23_Layer_1">
</g>
<g id="_x23_Layer_1_1_">
</g>
<g id="Layer_1">
</g>
<g id="_x23_Layer_1_2_">
</g>
<g id="_x23_Layer_1_3_">
</g>
<g id="_x23_Layer_1_4_">
</g>
<g id="_x23_Layer_1_5_">
</g>
<g id="_x23_Layer_1_6_">
</g>
<g id="_x23_Layer_1_7_">
</g>
<g id="_x23_Layer_1_8_">
</g>
<g id="_x23_Layer_1_9_">
</g>
<g id="_x23_Layer_1_10_">
</g>
<g id="_x23_Layer_1_11_">
</g>
<g id="_x23_Layer_1_12_">
</g>
<g id="_x23_Layer_1_13_">
</g>
<g id="_x23_Layer_1_14_">
</g>
<g id="_x23_Layer_1_15_">
</g>
<g id="_x23_Layer_1_16_">
</g>
<g id="_x23_Layer_1_17_">
</g>
<g id="_x23_Layer_1_18_">
</g>
<g id="_x23_Layer_1_19_">
</g>
<g id="_x23_Layer_1_20_">
</g>
<g id="_x23_Layer_1_21_">
</g>
<g id="_x23_Layer_1_22_">
</g>
<g id="_x23_Layer_1_23_">
</g>
<g id="_x23_Layer_1_24_">
</g>
<g id="_x23_Layer_1_25_">
	<g>
		<g>
			<g>
				<g>
					<g>
						<rect x="0" y="0" class="st5" width="60" height="60"/>
						<path class="st4" d="M60,60H0V0h60V60z M1,59h58V1H1V59z"/>
					</g>
					<g>
						<g>
							<g>
								<g>
									<path class="st4" d="M17.3,38.3c-0.3,0-0.5-0.1-0.7-0.3l-8-8l8-8c0.4-0.4,1-0.4,1.4,0s0.4,1,0,1.4L11.4,30l6.6,6.6
										c0.4,0.4,0.4,1,0,1.4C17.8,38.2,17.5,38.3,17.3,38.3z"/>
								</g>
								<g>
									<path class="st4" d="M22.6,31H10c-0.6,0-1-0.4-1-1s0.4-1,1-1h12.6c0.6,0,1,0.4,1,1S23.2,31,22.6,31z"/>
								</g>
							</g>
							<g>
								<g>
									<path class="st4" d="M42.7,38.3c-0.3,0-0.5-0.1-0.7-0.3c-0.4-0.4-0.4-1,0-1.4l6.6-6.6L42,23.4c-0.4-0.4-0.4-1,0-1.4
										c0.4-0.4,1-0.4,1.4,0l8,8l-8,8C43.2,38.2,43,38.3,42.7,38.3z"/>
								</g>
								<g>
									<path class="st4" d="M50,31H37.4c-0.6,0-1-0.4-1-1s0.4-1,1-1H50c0.6,0,1,0.4,1,1S50.6,31,50,31z"/>
								</g>
							</g>
						</g>
						<g>
							<g>
								<g>
									<path class="st4" d="M37.3,18.3c-0.3,0-0.5-0.1-0.7-0.3L30,11.4L23.4,18c-0.4,0.4-1,0.4-1.4,0c-0.4-0.4-0.4-1,0-1.4l8-8
										l8,8c0.4,0.4,0.4,1,0,1.4C37.8,18.2,37.5,18.3,37.3,18.3z"/>
								</g>
								<g>
									<path class="st4" d="M30,23.6c-0.6,0-1-0.4-1-1V10c0-0.6,0.4-1,1-1s1,0.4,1,1v12.6C31,23.2,30.6,23.6,30,23.6z"/>
								</g>
							</g>
							<g>
								<g>
									<path class="st4" d="M30,51.4l-8-8c-0.4-0.4-0.4-1,0-1.4c0.4-0.4,1-0.4,1.4,0l6.6,6.6l6.6-6.6c0.4-0.4,1-0.4,1.4,0
										c0.4,0.4,0.4,1,0,1.4L30,51.4z"/>
								</g>
								<g>
									<path class="st4" d="M30,51c-0.6,0-1-0.4-1-1V37.4c0-0.6,0.4-1,1-1s1,0.4,1,1V50C31,50.6,30.6,51,30,51z"/>
								</g>
							</g>
						</g>
					</g>
				</g>
			</g>
		</g>
		<g>
			<g>
				<rect x="60" y="0" class="st5" width="60" height="60"/>
				<path class="st4" d="M120,60H60V0h60V60z M61,59h58V1H61V59z"/>
			</g>
			<g>
				<path class="st4" d="M76.8,47.2H70l3.4-18.1h-3l1-5.2h3l0.2-1.2c0.5-2.7,1.6-5.6,3.9-7.6c1.9-1.6,4.3-2.2,6.6-2.2
					c1.7,0,2.9,0.2,3.7,0.6l-1.2,5.5c-0.6-0.3-1.3-0.4-2.2-0.4c-2.2,0-3.6,2-4,4.3l-0.2,1.1h4.6l-1,5.2h-4.6L76.8,47.2z M98.1,47.2
					l-1.5-3.7c-0.7-1.7-1-2.9-1.5-4.2H95c-0.7,1.1-1.3,2.3-2.4,3.9l-2.8,4H82l10.1-12l-5.5-11.2h7.5l1.4,3.5c0.7,1.9,1.1,3,1.5,3.9
					h0.1c0.9-1.2,1.5-2.3,2.5-3.7l2.6-3.7h7.9l-9.8,11.3l5.4,12H98.1L98.1,47.2z"/>
			</g>
		</g>
		<g>
			<g>
				<path class="st9" d="M1222.7,20.7c0.4,0.4,0.4,1,0,1.4c-0.4,0.4-1,0.4-1.4,0l-6.5-6.7l-6.5,6.7c-0.4,0.4-1,0.4-1.4,0
					c-0.4-0.4-0.4-1,0-1.4l7.2-7.4l0.7-0.7l0.7,0.7L1222.7,20.7z"/>
				<path class="st9" d="M1213.8,14c0-0.6,0.4-1,1-1c0.6,0,1,0.4,1,1v12.6v8.6V46c0,0.6-0.4,1-1,1c-0.6,0-1-0.4-1-1V35.2v-8.6V14z"
					/>
				<path class="st9" d="M1221.3,38.1c0.4-0.4,1-0.4,1.4,0c0.4,0.4,0.4,1,0,1.4l-7.2,7.2l-0.7,0.7l-0.7-0.7l-7.2-7.2
					c-0.4-0.4-0.4-1,0-1.4c0.4-0.4,1-0.4,1.4,0l6.5,6.5L1221.3,38.1z"/>
			</g>
			<g>
				<path class="st9" d="M1164.3,38c-0.4,0.4-1,0.4-1.4,0c-0.4-0.4-0.4-1,0-1.4l6.5-6.7l-6.5-6.5c-0.4-0.4-0.4-1,0-1.4
					c0.4-0.4,1-0.4,1.4,0l7.2,7.2l0.7,0.7l-0.7,0.7L1164.3,38z"/>
				<path class="st9" d="M1146.7,36.6c0.4,0.4,0.4,1,0,1.4c-0.4,0.4-1,0.4-1.4,0l-7.2-7.4l-0.7-0.7l0.7-0.7l7.2-7.2
					c0.4-0.4,1-0.4,1.4,0c0.4,0.4,0.4,1,0,1.4l-6.5,6.5L1146.7,36.6z"/>
				<path class="st9" d="M1138.8,30.9c-0.6,0-1-0.4-1-1c0-0.6,0.4-1,1-1h10.2h11h10.8c0.6,0,1,0.4,1,1c0,0.6-0.4,1-1,1H1160h-11
					H1138.8z"/>
			</g>
			<g>
				<rect x="1109.2" y="12" class="st9" width="2" height="36"/>
				<rect x="1101.6" y="18" class="st9" width="2" height="30"/>
				<rect x="1093.8" y="24" class="st9" width="2" height="24"/>
				<rect x="1086.2" y="30" class="st9" width="2" height="18"/>
				<rect x="1078.4" y="36" class="st9" width="2" height="12"/>
			</g>
			<rect x="1304.8" y="0" class="st9" width="60" height="60"/>
			<path class="st8" d="M1324.4,30c0-1.7-1.3-3-3-3c-1.7,0-3,1.3-3,3c0,1.7,1.3,3,3,3C1323,33,1324.4,31.7,1324.4,30z"/>
			<path class="st8" d="M1337.8,30c0-1.7-1.3-3-3-3c-1.7,0-3,1.3-3,3c0,1.7,1.3,3,3,3C1336.4,33,1337.8,31.7,1337.8,30z"/>
			<path class="st8" d="M1351.4,30c0-1.7-1.3-3-3-3c-1.7,0-3,1.3-3,3c0,1.7,1.3,3,3,3C1350,33,1351.4,31.7,1351.4,30z"/>
			<g>
				<path class="st11" d="M1274.8,7c12.6,0,23,10.4,23,23c0,12.6-10.4,23-23,23c-12.6,0-23-10.4-23-23
					C1251.8,17.4,1262.2,7,1274.8,7L1274.8,7z M1274.8,6L1274.8,6c-13.2,0-24,10.8-24,24s10.8,24,24,24c13.2,0,24-10.8,24-24
					S1288.2,6,1274.8,6z"/>
			</g>
		</g>
		<g>
			<g>
				<path class="st9" d="M658.4,20.3c-8-2.6-19-3.6-32.2,0c-14,4-24.2-0.2-27.2-2.2v19.8c2.8,0.8,5.8,1.6,9.2,2
					c6.6,0.8,14.4,0.4,23-2c14.4-4,24.4,0.2,27.2,2.2V20.3z"/>
				<polygon class="st9" points="555.9,39.7 581.5,39.7 598.3,18.7 539.1,18.7 				"/>
				<path class="st9" d="M479.1,36.1c0,0,14.8,9.2,29.6,9.2c14.8,0,29.6-9.2,29.6-9.2v-14c0,0-14.8-9.2-29.6-9.2
					c-14.8,0-29.6,9.2-29.6,9.2V36.1z"/>
				<path class="st9" d="M419.1,35.9c0,0,14.8,6.4,29.6,6.4c14.8,0,29.6-6.4,29.6-6.4V16.3c0,0-14.8,7.2-29.6,7.2
					c-14.8,0-29.6-7.2-29.6-7.2V35.9z"/>
				<path class="st9" d="M418.3,22.5c0,0-14.8-6.4-29.6-6.4c-14.8,0-29.6,6.4-29.6,6.4v19.6c0,0,14.8-7.2,29.6-7.2
					c14.8,0,29.6,7.2,29.6,7.2V22.5z"/>
				<path class="st9" d="M313.8,18.3c0,4.1,1.7,7.8,4.4,10.5c2.7,2.7,6.4,4.4,10.5,4.4c4.1,0,7.8-1.7,10.5-4.4
					c2.7-2.7,4.4-6.4,4.4-10.5h13.8c0,7.9-3.2,15.1-8.4,20.3c-5.2,5.2-12.4,8.4-20.3,8.4c-7.9,0-15.1-3.2-20.3-8.4
					c-5.2-5.2-8.4-12.4-8.4-20.3H313.8z"/>
				<path class="st9" d="M283.6,47.1c0-4.1-1.7-7.8-4.4-10.5c-2.7-2.7-6.4-4.4-10.5-4.4c-4.1,0-7.8,1.7-10.5,4.4
					c-2.7,2.7-4.4,6.4-4.4,10.5H240c0-7.9,3.2-15.1,8.4-20.3c5.2-5.2,12.4-8.4,20.3-8.4c7.9,0,15.1,3.2,20.3,8.4
					c5.2,5.2,8.4,12.4,8.4,20.3H283.6z"/>
			</g>
			<g>
				<path class="st10" d="M1078.4,20.3c-8-2.6-19-3.6-32.2,0c-14,4-24.2-0.2-27.2-2.2v19.8c2.8,0.8,5.8,1.6,9.2,2
					c6.6,0.8,14.4,0.4,23-2c14.4-4,24.4,0.2,27.2,2.2V20.3z"/>
				<polygon class="st10" points="975.9,39.7 1001.5,39.7 1018.3,18.7 959.1,18.7 				"/>
				<path class="st10" d="M899.1,36.1c0,0,14.8,9.2,29.6,9.2c14.8,0,29.6-9.2,29.6-9.2v-14c0,0-14.8-9.2-29.6-9.2
					c-14.8,0-29.6,9.2-29.6,9.2V36.1z"/>
				<path class="st10" d="M839.1,35.9c0,0,14.8,6.4,29.6,6.4c14.8,0,29.6-6.4,29.6-6.4V16.3c0,0-14.8,7.2-29.6,7.2
					c-14.8,0-29.6-7.2-29.6-7.2V35.9z"/>
				<path class="st10" d="M838.3,22.5c0,0-14.8-6.4-29.6-6.4c-14.8,0-29.6,6.4-29.6,6.4v19.6c0,0,14.8-7.2,29.6-7.2
					c14.8,0,29.6,7.2,29.6,7.2V22.5z"/>
				<path class="st10" d="M733.8,18.3c0,4.1,1.7,7.8,4.4,10.5c2.7,2.7,6.4,4.4,10.5,4.4c4.1,0,7.8-1.7,10.5-4.4
					c2.7-2.7,4.4-6.4,4.4-10.5h13.8c0,7.9-3.2,15.1-8.4,20.3c-5.2,5.2-12.4,8.4-20.3,8.4c-7.9,0-15.1-3.2-20.3-8.4
					c-5.2-5.2-8.4-12.4-8.4-20.3H733.8z"/>
				<path class="st10" d="M703.6,47.1c0-4.1-1.7-7.8-4.4-10.5c-2.7-2.7-6.4-4.4-10.5-4.4c-4.1,0-7.8,1.7-10.5,4.4
					c-2.7,2.7-4.4,6.4-4.4,10.5H660c0-7.9,3.2-15.1,8.4-20.3c5.2-5.2,12.4-8.4,20.3-8.4c7.9,0,15.1,3.2,20.3,8.4
					c5.2,5.2,8.4,12.4,8.4,20.3H703.6z"/>
			</g>
		</g>
		<g>
			<rect x="120" y="0" class="st10" width="60" height="60"/>
			<path class="st8" d="M136.8,47.2H130l3.4-18h-3l1-5.2h3l0.2-1.2c0.4-2.8,1.6-5.6,4-7.6c1.8-1.6,4.4-2.2,6.6-2.2
				c1.6,0,3,0.2,3.6,0.6l-1.2,5.4c-0.6-0.2-1.4-0.4-2.2-0.4c-2.2,0-3.6,2-4,4.2l-0.2,1.2h4.6l-1,5.2h-4.6L136.8,47.2L136.8,47.2z
				 M158.2,47.2L158.2,47.2h7.4l-5.4-12L170,24h-7.8l-2.6,3.6c-1,1.6-1.6,2.6-2.4,3.8H157c-0.2-1-0.6-2.2-1.4-4l-1.4-3.4h-7.6
				l5.4,11.2l-10,12h8l2.8-4c1-1.8,1.8-3,2.4-4h0.2c0.4,1.4,0.8,2.4,1.4,4.2L158.2,47.2z"/>
			<rect x="180" y="0" class="st10" width="60" height="60"/>
			<path class="st8" d="M196.7,22.1c0.4-0.4,1-0.4,1.4,0c0.4,0.4,0.4,1,0,1.4l-6.7,6.5l6.7,6.7c0.4,0.4,0.4,1,0,1.4
				c-0.4,0.4-1,0.4-1.4,0l-7.4-7.4l-0.7-0.7l0.7-0.7L196.7,22.1z"/>
			<path class="st8" d="M190,31c-0.6,0-1-0.4-1-1c0-0.6,0.4-1,1-1h12.6c0.6,0,1,0.4,1,1c0,0.6-0.4,1-1,1H190z"/>
			<path class="st8" d="M222.1,23.5c-0.4-0.4-0.4-1,0-1.4c0.4-0.4,1-0.4,1.4,0l7.2,7.2l0.7,0.7l-0.7,0.7l-7.2,7.4
				c-0.4,0.4-1,0.4-1.4,0c-0.4-0.4-0.4-1,0-1.4l6.5-6.7L222.1,23.5z"/>
			<path class="st8" d="M230,29c0.6,0,1,0.4,1,1c0,0.6-0.4,1-1,1h-12.6c-0.6,0-1-0.4-1-1c0-0.6,0.4-1,1-1H230z"/>
			<path class="st8" d="M218.1,16.7c0.4,0.4,0.4,1,0,1.4c-0.4,0.4-1,0.4-1.4,0l-6.7-6.7l-6.5,6.7c-0.4,0.4-1,0.4-1.4,0
				c-0.4-0.4-0.4-1,0-1.4l7.2-7.4l0.7-0.7l0.7,0.7L218.1,16.7z"/>
			<path class="st8" d="M209,10c0-0.6,0.4-1,1-1c0.6,0,1,0.4,1,1v12.6c0,0.6-0.4,1-1,1c-0.6,0-1-0.4-1-1V10z"/>
			<path class="st8" d="M216.7,42.1c0.4-0.4,1-0.4,1.4,0c0.4,0.4,0.4,1,0,1.4l-7.4,7.2l-0.7,0.7l-0.7-0.7l-7.2-7.2
				c-0.4-0.4-0.4-1,0-1.4c0.4-0.4,1-0.4,1.4,0l6.5,6.5L216.7,42.1z"/>
			<path class="st8" d="M211,50c0,0.6-0.4,1-1,1c-0.6,0-1-0.4-1-1V37.4c0-0.6,0.4-1,1-1c0.6,0,1,0.4,1,1V50z"/>
		</g>
	</g>
</g>
<g id="_x23_Layer_1_26_">
</g>
</svg>
