<?xml version="1.0" encoding="utf-8"?>
<!-- Generator: Adobe Illustrator 18.1.1, SVG Export Plug-In . SVG Version: 6.00 Build 0)  -->
<svg version="1.1" xmlns="http://www.w3.org/2000/svg" xmlns:xlink="http://www.w3.org/1999/xlink" x="0px" y="0px" width="1380px"
	 height="60px" viewBox="0 0 1380 60" style="enable-background:new 0 0 1380 60;" xml:space="preserve">
<style type="text/css">
	.st0{fill-rule:evenodd;clip-rule:evenodd;fill:#DF2E2D;}
	.st1{fill-rule:evenodd;clip-rule:evenodd;fill:#D1D1D1;}
	.st2{fill-rule:evenodd;clip-rule:evenodd;fill:none;}
	.st3{fill:#E02E2D;}
	.st4{fill:#D2D2D2;}
	.st5{fill:#FFFFFF;}
	.st6{fill:none;}
	.st7{fill-rule:evenodd;clip-rule:evenodd;fill:#8E8E8E;}
	.st8{fill-rule:evenodd;clip-rule:evenodd;fill:#FFFFFF;}
	.st9{fill-rule:evenodd;clip-rule:evenodd;fill:#C7C7C7;}
	.st10{fill-rule:evenodd;clip-rule:evenodd;fill:#D51723;}
	.st11{fill-rule:evenodd;clip-rule:evenodd;fill:#7B7B7B;}
	.st12{fill-rule:evenodd;clip-rule:evenodd;fill:#F4F4F4;}
	.st13{fill-rule:evenodd;clip-rule:evenodd;fill:#404040;}
	.st14{fill-rule:evenodd;clip-rule:evenodd;fill:none;stroke:#7B7B7B;stroke-width:1.0366;stroke-miterlimit:22.9256;}
</style>
<g id="_x23_Layer_1">
</g>
<g id="_x23_Layer_1_1_">
</g>
<g id="Layer_1">
</g>
<g id="_x23_Layer_1_2_">
</g>
<g id="_x23_Layer_1_3_">
</g>
<g id="_x23_Layer_1_4_">
</g>
<g id="_x23_Layer_1_5_">
</g>
<g id="_x23_Layer_1_6_">
</g>
<g id="_x23_Layer_1_7_">
</g>
<g id="_x23_Layer_1_8_">
</g>
<g id="_x23_Layer_1_9_">
</g>
<g id="_x23_Layer_1_10_">
</g>
<g id="_x23_Layer_1_11_">
</g>
<g id="_x23_Layer_1_12_">
</g>
<g id="_x23_Layer_1_13_">
</g>
<g id="_x23_Layer_1_14_">
</g>
<g id="_x23_Layer_1_15_">
</g>
<g id="_x23_Layer_1_16_">
</g>
<g id="_x23_Layer_1_17_">
</g>
<g id="_x23_Layer_1_18_">
</g>
<g id="_x23_Layer_1_19_">
</g>
<g id="_x23_Layer_1_20_">
</g>
<g id="_x23_Layer_1_21_">
</g>
<g id="_x23_Layer_1_22_">
</g>
<g id="_x23_Layer_1_23_">
</g>
<g id="_x23_Layer_1_24_">
</g>
<g id="_x23_Layer_1_25_">
	<g>
		<g>
			<g>
				<path class="st9" d="M1237.9,20.7c0.4,0.4,0.4,1,0,1.4c-0.4,0.4-1,0.4-1.4,0l-6.5-6.7l-6.5,6.7c-0.4,0.4-1,0.4-1.4,0
					c-0.4-0.4-0.4-1,0-1.4l7.2-7.4l0.7-0.7l0.7,0.7L1237.9,20.7z"/>
				<path class="st9" d="M1229,14c0-0.6,0.4-1,1-1c0.6,0,1,0.4,1,1v12.6v8.6V46c0,0.6-0.4,1-1,1c-0.6,0-1-0.4-1-1V35.2v-8.6V14z"/>
				<path class="st9" d="M1236.4,38.1c0.4-0.4,1-0.4,1.4,0c0.4,0.4,0.4,1,0,1.4l-7.2,7.2l-0.7,0.7l-0.7-0.7l-7.2-7.2
					c-0.4-0.4-0.4-1,0-1.4c0.4-0.4,1-0.4,1.4,0l6.5,6.5L1236.4,38.1z"/>
			</g>
			<g>
				<path class="st9" d="M1179.5,38c-0.4,0.4-1,0.4-1.4,0c-0.4-0.4-0.4-1,0-1.4l6.5-6.7l-6.5-6.5c-0.4-0.4-0.4-1,0-1.4
					c0.4-0.4,1-0.4,1.4,0l7.2,7.2l0.7,0.7l-0.7,0.7L1179.5,38z"/>
				<path class="st9" d="M1161.9,36.6c0.4,0.4,0.4,1,0,1.4c-0.4,0.4-1,0.4-1.4,0l-7.2-7.4l-0.7-0.7l0.7-0.7l7.2-7.2
					c0.4-0.4,1-0.4,1.4,0c0.4,0.4,0.4,1,0,1.4l-6.5,6.5L1161.9,36.6z"/>
				<path class="st9" d="M1154,30.9c-0.6,0-1-0.4-1-1c0-0.6,0.4-1,1-1h10.2h11h10.8c0.6,0,1,0.4,1,1c0,0.6-0.4,1-1,1h-10.8h-11H1154
					z"/>
			</g>
			<g>
				<rect x="1124.4" y="12" class="st9" width="2" height="36"/>
				<rect x="1116.8" y="18" class="st9" width="2" height="30"/>
				<rect x="1109" y="24" class="st9" width="2" height="24"/>
				<rect x="1101.4" y="30" class="st9" width="2" height="18"/>
				<rect x="1093.6" y="36" class="st9" width="2" height="12"/>
			</g>
			<rect x="1320" y="0" class="st9" width="60" height="60"/>
			<path class="st8" d="M1339.6,30c0-1.7-1.3-3-3-3c-1.7,0-3,1.3-3,3c0,1.7,1.3,3,3,3C1338.2,33,1339.6,31.7,1339.6,30z"/>
			<path class="st8" d="M1353,30c0-1.7-1.3-3-3-3c-1.7,0-3,1.3-3,3c0,1.7,1.3,3,3,3C1351.6,33,1353,31.7,1353,30z"/>
			<path class="st8" d="M1366.6,30c0-1.7-1.3-3-3-3c-1.7,0-3,1.3-3,3c0,1.7,1.3,3,3,3C1365.2,33,1366.6,31.7,1366.6,30z"/>
			<g>
				<path class="st11" d="M1290,7c12.6,0,23,10.4,23,23c0,12.6-10.4,23-23,23c-12.6,0-23-10.4-23-23C1267,17.4,1277.4,7,1290,7
					L1290,7z M1290,6L1290,6c-13.2,0-24,10.8-24,24s10.8,24,24,24c13.2,0,24-10.8,24-24S1303.4,6,1290,6z"/>
			</g>
		</g>
		<g>
			<g>
				<path class="st9" d="M659.7,17.6c-8-2.6-19-3.6-32.2,0c-14,4-24.2-0.2-27.2-2.2v19.8c2.8,0.8,5.8,1.6,9.2,2
					c6.6,0.8,14.4,0.4,23-2c14.4-4,24.4,0.2,27.2,2.2V17.6z"/>
				<polygon class="st9" points="557.2,37 582.8,37 599.6,16 540.4,16 				"/>
				<path class="st9" d="M480.4,33.4c0,0,14.8,9.2,29.6,9.2c14.8,0,29.6-9.2,29.6-9.2v-14c0,0-14.8-9.2-29.6-9.2
					c-14.8,0-29.6,9.2-29.6,9.2V33.4z"/>
				<path class="st9" d="M420.4,33.2c0,0,14.8,6.4,29.6,6.4c14.8,0,29.6-6.4,29.6-6.4V13.6c0,0-14.8,7.2-29.6,7.2
					c-14.8,0-29.6-7.2-29.6-7.2V33.2z"/>
				<path class="st9" d="M419.6,19.8c0,0-14.8-6.4-29.6-6.4c-14.8,0-29.6,6.4-29.6,6.4v19.6c0,0,14.8-7.2,29.6-7.2
					c14.8,0,29.6,7.2,29.6,7.2V19.8z"/>
				<path class="st9" d="M315.1,15.6c0,4.1,1.7,7.8,4.4,10.5c2.7,2.7,6.4,4.4,10.5,4.4c4.1,0,7.8-1.7,10.5-4.4
					c2.7-2.7,4.4-6.4,4.4-10.5h13.8c0,7.9-3.2,15.1-8.4,20.3c-5.2,5.2-12.4,8.4-20.3,8.4c-7.9,0-15.1-3.2-20.3-8.4
					c-5.2-5.2-8.4-12.4-8.4-20.3H315.1z"/>
				<path class="st9" d="M284.9,44.4c0-4.1-1.7-7.8-4.4-10.5c-2.7-2.7-6.4-4.4-10.5-4.4c-4.1,0-7.8,1.7-10.5,4.4
					c-2.7,2.7-4.4,6.4-4.4,10.5h-13.8c0-7.9,3.2-15.1,8.4-20.3c5.2-5.2,12.4-8.4,20.3-8.4c7.9,0,15.1,3.2,20.3,8.4
					c5.2,5.2,8.4,12.4,8.4,20.3H284.9z"/>
			</g>
			<g>
				<path class="st10" d="M1079.7,17.6c-8-2.6-19-3.6-32.2,0c-14,4-24.2-0.2-27.2-2.2v19.8c2.8,0.8,5.8,1.6,9.2,2
					c6.6,0.8,14.4,0.4,23-2c14.4-4,24.4,0.2,27.2,2.2V17.6z"/>
				<polygon class="st10" points="977.2,37 1002.8,37 1019.6,16 960.4,16 				"/>
				<path class="st10" d="M900.4,33.4c0,0,14.8,9.2,29.6,9.2c14.8,0,29.6-9.2,29.6-9.2v-14c0,0-14.8-9.2-29.6-9.2
					c-14.8,0-29.6,9.2-29.6,9.2V33.4z"/>
				<path class="st10" d="M840.4,33.2c0,0,14.8,6.4,29.6,6.4c14.8,0,29.6-6.4,29.6-6.4V13.6c0,0-14.8,7.2-29.6,7.2
					c-14.8,0-29.6-7.2-29.6-7.2V33.2z"/>
				<path class="st10" d="M839.6,19.8c0,0-14.8-6.4-29.6-6.4c-14.8,0-29.6,6.4-29.6,6.4v19.6c0,0,14.8-7.2,29.6-7.2
					c14.8,0,29.6,7.2,29.6,7.2V19.8z"/>
				<path class="st10" d="M735.1,15.6c0,4.1,1.7,7.8,4.4,10.5c2.7,2.7,6.4,4.4,10.5,4.4c4.1,0,7.8-1.7,10.5-4.4
					c2.7-2.7,4.4-6.4,4.4-10.5h13.8c0,7.9-3.2,15.1-8.4,20.3c-5.2,5.2-12.4,8.4-20.3,8.4c-7.9,0-15.1-3.2-20.3-8.4
					c-5.2-5.2-8.4-12.4-8.4-20.3H735.1z"/>
				<path class="st10" d="M704.9,44.4c0-4.1-1.7-7.8-4.4-10.5c-2.7-2.7-6.4-4.4-10.5-4.4c-4.1,0-7.8,1.7-10.5,4.4
					c-2.7,2.7-4.4,6.4-4.4,10.5h-13.8c0-7.9,3.2-15.1,8.4-20.3c5.2-5.2,12.4-8.4,20.3-8.4c7.9,0,15.1,3.2,20.3,8.4
					c5.2,5.2,8.4,12.4,8.4,20.3H704.9z"/>
			</g>
		</g>
		<g>
			<rect x="120" y="0" class="st10" width="60" height="60"/>
			<path class="st8" d="M136.8,47.2H130l3.4-18h-3l1-5.2h3l0.2-1.2c0.4-2.8,1.6-5.6,4-7.6c1.8-1.6,4.4-2.2,6.6-2.2
				c1.6,0,3,0.2,3.6,0.6l-1.2,5.4c-0.6-0.2-1.4-0.4-2.2-0.4c-2.2,0-3.6,2-4,4.2l-0.2,1.2h4.6l-1,5.2h-4.6L136.8,47.2L136.8,47.2z
				 M158.2,47.2L158.2,47.2h7.4l-5.4-12L170,24h-7.8l-2.6,3.6c-1,1.6-1.6,2.6-2.4,3.8H157c-0.2-1-0.6-2.2-1.4-4l-1.4-3.4h-7.6
				l5.4,11.2l-10,12h8l2.8-4c1-1.8,1.8-3,2.4-4h0.2c0.4,1.4,0.8,2.4,1.4,4.2L158.2,47.2z"/>
			<rect x="60.5" y="0.5" class="st8" width="59" height="59"/>
			<path class="st9" d="M76.9,22.2c0.4-0.4,1-0.4,1.4,0c0.4,0.4,0.4,1,0,1.4L71.7,30l6.6,6.6c0.4,0.4,0.4,1,0,1.4
				c-0.4,0.4-1,0.4-1.4,0l-7.3-7.3L68.9,30l0.7-0.7L76.9,22.2z"/>
			<path class="st9" d="M70.3,31c-0.5,0-1-0.4-1-1c0-0.5,0.4-1,1-1h12.4c0.5,0,1,0.4,1,1c0,0.5-0.4,1-1,1H70.3z"/>
			<path class="st9" d="M101.9,23.6c-0.4-0.4-0.4-1,0-1.4c0.4-0.4,1-0.4,1.4,0l7.1,7.1L111,30l-0.7,0.7l-7.1,7.3
				c-0.4,0.4-1,0.4-1.4,0c-0.4-0.4-0.4-1,0-1.4l6.4-6.6L101.9,23.6z"/>
			<path class="st9" d="M109.7,29c0.5,0,1,0.4,1,1c0,0.5-0.4,1-1,1H97.3c-0.5,0-1-0.4-1-1c0-0.5,0.4-1,1-1H109.7z"/>
			<path class="st9" d="M98,16.9c0.4,0.4,0.4,1,0,1.4c-0.4,0.4-1,0.4-1.4,0L90,11.7l-6.4,6.6c-0.4,0.4-1,0.4-1.4,0
				c-0.4-0.4-0.4-1,0-1.4l7.1-7.3L90,8.9l0.7,0.7L98,16.9z"/>
			<path class="st9" d="M89,10.3c0-0.5,0.4-1,1-1c0.5,0,1,0.4,1,1v12.4c0,0.5-0.4,1-1,1c-0.5,0-1-0.4-1-1V10.3z"/>
			<path class="st9" d="M96.6,41.9c0.4-0.4,1-0.4,1.4,0c0.4,0.4,0.4,1,0,1.4l-7.3,7.1L90,51.1l-0.7-0.7l-7.1-7.1
				c-0.4-0.4-0.4-1,0-1.4c0.4-0.4,1-0.4,1.4,0l6.4,6.4L96.6,41.9z"/>
			<path class="st9" d="M91,49.7c0,0.5-0.4,1-1,1c-0.5,0-1-0.4-1-1V37.3c0-0.5,0.4-1,1-1c0.5,0,1,0.4,1,1V49.7z"/>
			<rect x="0.5" y="0.5" class="st8" width="59" height="59"/>
			<path class="st9" d="M17,46.9h-6.7l3.3-17.7h-3l1-5.1h3l0.2-1.2c0.4-2.8,1.6-5.5,3.9-7.5c1.8-1.6,4.3-2.2,6.5-2.2
				c1.6,0,3,0.2,3.5,0.6l-1.2,5.3c-0.6-0.2-1.4-0.4-2.2-0.4c-2.2,0-3.5,2-3.9,4.1l-0.2,1.2h4.5l-1,5.1h-4.5L17,46.9L17,46.9z
				 M38.1,46.9L38.1,46.9h7.3L40,35.1l9.6-11H42l-2.6,3.5c-1,1.6-1.6,2.6-2.4,3.7h-0.2c-0.2-1-0.6-2.2-1.4-3.9l-1.4-3.3h-7.5l5.3,11
				l-9.8,11.8H30l2.8-3.9c1-1.8,1.8-3,2.4-3.9h0.2c0.4,1.4,0.8,2.4,1.4,4.1L38.1,46.9z"/>
			<rect x="180" y="0" class="st10" width="60" height="60"/>
			<path class="st8" d="M196.7,22.1c0.4-0.4,1-0.4,1.4,0c0.4,0.4,0.4,1,0,1.4l-6.7,6.5l6.7,6.7c0.4,0.4,0.4,1,0,1.4
				c-0.4,0.4-1,0.4-1.4,0l-7.4-7.4l-0.7-0.7l0.7-0.7L196.7,22.1z"/>
			<path class="st8" d="M190,31c-0.6,0-1-0.4-1-1c0-0.6,0.4-1,1-1h12.6c0.6,0,1,0.4,1,1c0,0.6-0.4,1-1,1H190z"/>
			<path class="st8" d="M222.1,23.5c-0.4-0.4-0.4-1,0-1.4c0.4-0.4,1-0.4,1.4,0l7.2,7.2l0.7,0.7l-0.7,0.7l-7.2,7.4
				c-0.4,0.4-1,0.4-1.4,0c-0.4-0.4-0.4-1,0-1.4l6.5-6.7L222.1,23.5z"/>
			<path class="st8" d="M230,29c0.6,0,1,0.4,1,1c0,0.6-0.4,1-1,1h-12.6c-0.6,0-1-0.4-1-1c0-0.6,0.4-1,1-1H230z"/>
			<path class="st8" d="M218.1,16.7c0.4,0.4,0.4,1,0,1.4c-0.4,0.4-1,0.4-1.4,0l-6.7-6.7l-6.5,6.7c-0.4,0.4-1,0.4-1.4,0
				c-0.4-0.4-0.4-1,0-1.4l7.2-7.4l0.7-0.7l0.7,0.7L218.1,16.7z"/>
			<path class="st8" d="M209,10c0-0.6,0.4-1,1-1c0.6,0,1,0.4,1,1v12.6c0,0.6-0.4,1-1,1c-0.6,0-1-0.4-1-1V10z"/>
			<path class="st8" d="M216.7,42.1c0.4-0.4,1-0.4,1.4,0c0.4,0.4,0.4,1,0,1.4l-7.4,7.2l-0.7,0.7l-0.7-0.7l-7.2-7.2
				c-0.4-0.4-0.4-1,0-1.4c0.4-0.4,1-0.4,1.4,0l6.5,6.5L216.7,42.1z"/>
			<path class="st8" d="M211,50c0,0.6-0.4,1-1,1c-0.6,0-1-0.4-1-1V37.4c0-0.6,0.4-1,1-1c0.6,0,1,0.4,1,1V50z"/>
		</g>
	</g>
</g>
<g id="_x23_Layer_1_26_">
</g>
</svg>
