<?xml version="1.0" encoding="utf-8"?>
<!-- Generator: Adobe Illustrator 18.1.1, SVG Export Plug-In . SVG Version: 6.00 Build 0)  -->
<svg version="1.1" id="Layer_1" xmlns="http://www.w3.org/2000/svg" xmlns:xlink="http://www.w3.org/1999/xlink" x="0px" y="0px"
	 viewBox="0 0 240 60" enable-background="new 0 0 240 60" xml:space="preserve">
<g>
	<g>
		<g>
			<path fill="none" stroke="#D2D2D2" stroke-miterlimit="10" d="M30,8C17.9,8,8,17.9,8,30s9.9,22,22,22c12.1,0,22-9.9,22-22
				S42.1,8,30,8z"/>
		</g>
		<g>
			
				<line fill="none" stroke="#D2D2D2" stroke-width="1.1" stroke-linecap="round" stroke-miterlimit="10" x1="43.2" y1="30" x2="16.8" y2="30"/>
		</g>
	</g>
	<rect x="0" y="0" fill="none" width="60" height="60"/>
</g>
<g>
	<g>
		<g>
			<path fill="none" stroke="#D2D2D2" stroke-miterlimit="10" d="M90,8c-12.1,0-22,9.9-22,22c0,12.1,9.9,22,22,22
				c12.1,0,22-9.9,22-22C112,17.9,102.1,8,90,8z"/>
		</g>
		<g>
			<line fill="none" stroke="#D2D2D2" stroke-miterlimit="10" x1="90" y1="16.8" x2="90" y2="43.2"/>
			<line fill="none" stroke="#D2D2D2" stroke-miterlimit="10" x1="103.2" y1="30" x2="76.8" y2="30"/>
		</g>
	</g>
	<rect x="60" y="0" fill="none" width="60" height="60"/>
</g>
<g>
	<g>
		<g>
			<path fill="none" stroke="#E02E2D" stroke-width="1.1" stroke-linecap="round" stroke-miterlimit="10" d="M150,8
				c-12.1,0-22,9.9-22,22s9.9,22,22,22c12.1,0,22-9.9,22-22S162.1,8,150,8z"/>
		</g>
		<g>
			
				<line fill="none" stroke="#E02E2D" stroke-width="1.1" stroke-linecap="round" stroke-miterlimit="10" x1="163.2" y1="30" x2="136.8" y2="30"/>
		</g>
	</g>
	<rect x="120" y="0" fill="none" width="60" height="60"/>
</g>
<g>
	<g>
		<g>
			<path fill="none" stroke="#E02E2D" stroke-miterlimit="10" d="M210,8c-12.1,0-22,9.9-22,22c0,12.1,9.9,22,22,22
				c12.1,0,22-9.9,22-22C232,17.9,222.1,8,210,8z"/>
		</g>
		<g>
			
				<line fill="none" stroke="#E02E2D" stroke-width="1.1" stroke-linecap="round" stroke-miterlimit="10" x1="210" y1="16.8" x2="210" y2="43.2"/>
			
				<line fill="none" stroke="#E02E2D" stroke-width="1.1" stroke-linecap="round" stroke-miterlimit="10" x1="223.2" y1="30" x2="196.8" y2="30"/>
		</g>
	</g>
	<rect x="180" y="0" fill="none" width="60" height="60"/>
</g>
</svg>
