<?xml version="1.0" encoding="UTF-8"?>
<!DOCTYPE svg PUBLIC "-//W3C//DTD SVG 1.1//EN" "http://www.w3.org/Graphics/SVG/1.1/DTD/svg11.dtd">
<!-- Creator: CorelDRAW Home & Student 2014 -->
<svg xmlns="http://www.w3.org/2000/svg" xml:space="preserve" width="48px" height="48px" version="1.1" style="shape-rendering:geometricPrecision; text-rendering:geometricPrecision; image-rendering:optimizeQuality; fill-rule:evenodd; clip-rule:evenodd"
viewBox="0 0 48 48"
 xmlns:xlink="http://www.w3.org/1999/xlink">
 <defs>
  <style type="text/css">
   <![CDATA[
    .fil0 {fill:none}
    .fil1 {fill:white;fill-rule:nonzero}
   ]]>
  </style>
 </defs>
 <g id="Layer_x0020_1">
  <metadata id="CorelCorpID_0Corel-Layer"/>
  <g id="_478410408">
   <path class="fil0" d="M24 13c6,0 11,5 11,11 0,6 -5,11 -11,11 -6,0 -11,-5 -11,-11 0,-6 5,-11 11,-11m0 -1c-7,0 -12,5 -12,12l0 0c0,7 5,12 12,12 7,0 12,-5 12,-12l0 0c0,-7 -5,-12 -12,-12l0 0z"/>
   <path class="fil1" d="M18 24c0,0 0,0 0,0 0,0 0,0 1,0l3 3 7 -7c1,0 1,0 1,0 0,0 0,0 0,0l-8 8 0 0 0 0 -4 -4z"/>
  </g>
 </g>
</svg>
