<?xml version="1.0" encoding="UTF-8"?>
<!DOCTYPE svg PUBLIC "-//W3C//DTD SVG 1.1//EN" "http://www.w3.org/Graphics/SVG/1.1/DTD/svg11.dtd">
<!-- Creator: CorelDRAW Home & Student 2014 -->
<svg xmlns="http://www.w3.org/2000/svg" xml:space="preserve" width="48px" height="48px" version="1.1" style="shape-rendering:geometricPrecision; text-rendering:geometricPrecision; image-rendering:optimizeQuality; fill-rule:evenodd; clip-rule:evenodd"
viewBox="0 0 48 48"
 xmlns:xlink="http://www.w3.org/1999/xlink">
 <defs>
  <style type="text/css">
   <![CDATA[
    .fil1 {fill:none}
    .fil0 {fill:#D2D2D2;fill-rule:nonzero}
   ]]>
  </style>
 </defs>
 <g id="Layer_x0020_1">
  <metadata id="CorelCorpID_0Corel-Layer"/>
  <g id="_473303992">
   <path class="fil0" d="M19 9c0,-1 1,-1 1,0 1,0 1,1 0,1l-14 14 14 14c1,0 1,1 0,1 0,1 -1,1 -1,0l-15 -14 -1 -1 1 -1 15 -14z"/>
   <rect class="fil1" width="24" height="48"/>
   <path class="fil0" d="M29 9c0,-1 -1,-1 -1,0 -1,0 -1,1 0,1l14 14 -14 14c-1,0 -1,1 0,1 0,1 1,1 1,0l15 -14 1 -1 -1 -1 -15 -14z"/>
   <rect class="fil1" x="24" width="24" height="48"/>
  </g>
 </g>
</svg>
