<?xml version="1.0" encoding="UTF-8"?>
<!DOCTYPE svg PUBLIC "-//W3C//DTD SVG 1.1//EN" "http://www.w3.org/Graphics/SVG/1.1/DTD/svg11.dtd">
<!-- Creator: CorelDRAW Home & Student 2014 -->
<svg xmlns="http://www.w3.org/2000/svg" xml:space="preserve" width="48px" height="48px" version="1.1" style="shape-rendering:geometricPrecision; text-rendering:geometricPrecision; image-rendering:optimizeQuality; fill-rule:evenodd; clip-rule:evenodd"
viewBox="0 0 48 48"
 xmlns:xlink="http://www.w3.org/1999/xlink">
 <defs>
  <style type="text/css">
   <![CDATA[
    .fil0 {fill:none}
    .fil1 {fill:white;fill-rule:nonzero}
   ]]>
  </style>
 </defs>
 <g id="Layer_x0020_1">
  <metadata id="CorelCorpID_0Corel-Layer"/>
  <g id="_379528160">
   <path class="fil0" d="M24 2c12,0 22,10 22,22 0,12 -10,22 -22,22 -12,0 -22,-10 -22,-22 0,-12 10,-22 22,-22m0 -2c-13,0 -24,11 -24,24l0 0c0,13 11,24 24,24 13,0 24,-11 24,-24l0 0c0,-13 -11,-24 -24,-24l0 0z"/>
   <path class="fil1" d="M12 25c0,-1 0,-1 0,-2 0,0 1,0 1,0l7 8 15 -15c0,-1 1,-1 1,0 0,0 0,1 0,1l-15 15 -1 1 -1 -1 -7 -7z"/>
  </g>
 </g>
</svg>
