<?xml version="1.0" encoding="UTF-8"?>
<!DOCTYPE svg PUBLIC "-//W3C//DTD SVG 1.1//EN" "http://www.w3.org/Graphics/SVG/1.1/DTD/svg11.dtd">
<!-- Creator: CorelDRAW Home & Student 2014 -->
<svg xmlns="http://www.w3.org/2000/svg" xml:space="preserve" width="80px" height="80px" version="1.1" style="shape-rendering:geometricPrecision; text-rendering:geometricPrecision; image-rendering:optimizeQuality; fill-rule:evenodd; clip-rule:evenodd"
viewBox="0 0 80 80"
 xmlns:xlink="http://www.w3.org/1999/xlink">
 <defs>
  <style type="text/css">
   <![CDATA[
    .fil0 {fill:none}
    .fil1 {fill:none;fill-rule:nonzero}
    .fil2 {fill:#C8C8C8}
   ]]>
  </style>
 </defs>
 <g id="Layer_x0020_1">
  <metadata id="CorelCorpID_0Corel-Layer"/>
  <g id="_471304728">
   <path class="fil0" d="M79 73c0,3 -3,6 -6,6l-66 0c-3,0 -6,-3 -6,-6l0 -66c0,-3 3,-6 6,-6l66 0c3,0 6,3 6,6l0 66z"/>
   <path class="fil1" d="M80 73c0,2 -1,4 -2,5 -1,1 -3,2 -5,2l-66 0c-2,0 -4,-1 -5,-2l0 0c-1,-1 -2,-3 -2,-5l0 -66c0,-2 1,-4 2,-5l0 0c1,-1 3,-2 5,-2l66 0c2,0 4,1 5,2 1,1 2,3 2,5l0 66zm-3 4c0,-1 1,-3 1,-4l0 -66c0,-1 -1,-3 -1,-4 -1,0 -3,-1 -4,-1l-66 0c-1,0 -3,1 -4,1 0,1 -1,3 -1,4l0 66c0,1 1,3 1,4 1,0 3,1 4,1l66 0c1,0 3,-1 4,-1z"/>
   <circle class="fil2" cx="22" cy="40" r="4"/>
   <circle class="fil2" cx="40" cy="40" r="4"/>
   <circle class="fil2" cx="58" cy="40" r="4"/>
  </g>
 </g>
</svg>
