<?xml version="1.0" encoding="UTF-8"?>
<!DOCTYPE svg PUBLIC "-//W3C//DTD SVG 1.1//EN" "http://www.w3.org/Graphics/SVG/1.1/DTD/svg11.dtd">
<!-- Creator: CorelDRAW Home & Student 2014 -->
<svg xmlns="http://www.w3.org/2000/svg" xml:space="preserve" width="60px" height="30px" version="1.1" style="shape-rendering:geometricPrecision; text-rendering:geometricPrecision; image-rendering:optimizeQuality; fill-rule:evenodd; clip-rule:evenodd"
viewBox="0 0 60 30"
 xmlns:xlink="http://www.w3.org/1999/xlink">
 <defs>
  <style type="text/css">
   <![CDATA[
    .fil0 {fill:none}
    .fil2 {fill:#7B7B7B}
    .fil1 {fill:#7B7B7B;fill-rule:nonzero}
   ]]>
  </style>
 </defs>
 <g id="Layer_x0020_1">
  <metadata id="CorelCorpID_0Corel-Layer"/>
  <g id="_599970536">
   <g>
    <rect class="fil0" width="29.9532" height="30"/>
    <path class="fil1" d="M9 12c-1,0 -1,0 0,0 0,-1 0,-1 0,0l6 5 6 -5c0,-1 0,-1 0,0 1,0 1,0 0,0l-6 6 0 1 0 -1 -6 -6z"/>
   </g>
   <g>
    <rect class="fil0" x="30" width="29.9533" height="29.9539"/>
    <g>
     <path class="fil1" d="M48 17l4 4c0,0 0,0 0,1 -1,0 -1,0 -1,0l-4 -4c1,0 1,0 1,-1z"/>
     <path class="fil2" d="M44 10c3,0 5,2 5,4 0,3 -2,5 -5,5 -2,0 -4,-2 -4,-5 0,-2 2,-4 4,-4m0 -1c-3,0 -5,2 -5,5 0,3 2,6 5,6 3,0 6,-3 6,-6 0,-3 -3,-5 -6,-5l0 0z"/>
    </g>
   </g>
  </g>
 </g>
</svg>
