<?xml version="1.0" encoding="UTF-8"?>
<!DOCTYPE svg PUBLIC "-//W3C//DTD SVG 1.1//EN" "http://www.w3.org/Graphics/SVG/1.1/DTD/svg11.dtd">
<svg xmlns="http://www.w3.org/2000/svg" xml:space="preserve" width="190px" height="190px" version="1.1" style="shape-rendering:geometricPrecision; text-rendering:geometricPrecision; image-rendering:optimizeQuality; fill-rule:evenodd; clip-rule:evenodd"
viewBox="0 0 190 190"
 xmlns:xlink="http://www.w3.org/1999/xlink">
 <defs>
  <style type="text/css">
   <![CDATA[
    .fil0 {fill:none}
    .fil1 {fill:#E02E2D;fill-rule:nonzero}
   ]]>
  </style>
 </defs>
 <g id="Layer_x0020_1">
  <metadata id="CorelCorpID_0Corel-Layer"/>
  <g id="_475319280">
   <rect class="fil0" width="190" height="190"/>
   <g>
    <path class="fil1" d="M144 96c0,-14 -5,-26 -14,-34 -9,-9 -21,-14 -34,-14 -13,0 -25,5 -34,14 -8,8 -14,20 -14,34 0,13 6,25 14,34 9,8 21,14 34,14 13,0 25,-6 34,-14 9,-9 14,-21 14,-34zm-11 -37c9,9 15,22 15,37 0,14 -6,27 -15,36 -9,10 -22,16 -37,16 -14,0 -27,-6 -37,-16 -9,-9 -15,-22 -15,-36 0,-15 6,-28 15,-37 10,-10 23,-15 37,-15 15,0 28,5 37,15z"/>
    <path class="fil1" d="M92 71c1,0 2,0 3,0 1,1 1,2 0,3l-21 22 21 21c1,1 1,2 0,3 -1,1 -2,1 -3,0l-22 -23 -2 -1 2 -2 22 -23z"/>
    <path class="fil1" d="M71 98c-1,0 -2,-1 -2,-2 0,-2 1,-2 2,-2l50 0c1,0 2,0 2,2 0,1 -1,2 -2,2l-50 0z"/>
   </g>
  </g>
 </g>
</svg>
