<?xml version="1.0" encoding="UTF-8"?>
<!DOCTYPE svg PUBLIC "-//W3C//DTD SVG 1.1//EN" "http://www.w3.org/Graphics/SVG/1.1/DTD/svg11.dtd">
<svg xmlns="http://www.w3.org/2000/svg" xml:space="preserve" width="120px" height="60px" version="1.1" style="shape-rendering:geometricPrecision; text-rendering:geometricPrecision; image-rendering:optimizeQuality; fill-rule:evenodd; clip-rule:evenodd"
viewBox="0 0 120 60"
 xmlns:xlink="http://www.w3.org/1999/xlink">
 <defs>
  <style type="text/css">
   <![CDATA[
    .fil3 {fill:none}
    .fil2 {fill:#8E8E8E}
    .fil1 {fill:white}
    .fil0 {fill:#8E8E8E;fill-rule:nonzero}
   ]]>
  </style>
 </defs>
 <g id="Layer_x0020_1">
  <metadata id="CorelCorpID_0Corel-Layer"/>
  <path class="fil0" d="M22 24c-1,0 -1,0 0,0 0,-1 0,-1 0,0l12 11 12 -11c0,-1 0,-1 0,0 1,0 1,0 0,0l-12 12 0 1 0 -1 -12 -12z"/>
  <path class="fil0" d="M91 29c0,0 0,-1 0,-1 1,0 1,0 1,0l14 14c1,0 1,1 0,1 0,0 0,0 0,0l-15 -14z"/>
  <path class="fil1" d="M92 39c-6,0 -11,-5 -11,-11 0,-5 5,-10 11,-10 6,0 10,5 10,10 0,6 -4,11 -10,11z"/>
  <path class="fil2" d="M92 18c5,0 10,5 10,10 0,6 -5,10 -10,10 -6,0 -10,-4 -10,-10 0,-5 4,-10 10,-10m0 -1c-6,0 -11,5 -11,11 0,7 5,11 11,11 6,0 11,-4 11,-11 0,-6 -5,-11 -11,-11l0 0z"/>
  <rect class="fil3" x="60" width="60" height="60"/>
  <rect class="fil3" width="60" height="60"/>
 </g>
</svg>
