<?xml version="1.0" encoding="UTF-8"?>
<!DOCTYPE svg PUBLIC "-//W3C//DTD SVG 1.1//EN" "http://www.w3.org/Graphics/SVG/1.1/DTD/svg11.dtd">
<!-- Creator: CorelDRAW Home & Student 2014 -->
<svg xmlns="http://www.w3.org/2000/svg" xml:space="preserve" width="420px" height="168px" version="1.1" style="shape-rendering:geometricPrecision; text-rendering:geometricPrecision; image-rendering:optimizeQuality; fill-rule:evenodd; clip-rule:evenodd"
viewBox="0 0 420 168"
 xmlns:xlink="http://www.w3.org/1999/xlink">
 <defs>
  <style type="text/css">
   <![CDATA[
    .fil0 {fill:none}
    .fil2 {fill:#D2D2D2}
    .fil1 {fill:#E02E2D}
   ]]>
  </style>
 </defs>
 <g id="Layer_x0020_1">
  <metadata id="CorelCorpID_0Corel-Layer"/>
  <g id="text_r">
   <rect class="fil0" x="168" y="84" width="83.999" height="83.9992"/>
   <polygon class="fil1" points="214,91 228,91 228,99 234,99 234,84 186,84 186,99 192,99 192,91 207,91 207,133 200,133 200,139 220,139 220,133 214,133 "/>
  </g>
  <g id="text">
   <rect class="fil0" x="168" width="83.999" height="83.9992"/>
   <polygon class="fil2" points="214,7 228,7 228,15 234,15 234,0 186,0 186,15 192,15 192,7 207,7 207,49 200,49 200,55 220,55 220,49 214,49 "/>
  </g>
  <g id="numbers_r">
   <rect class="fil0" x="336" y="84" width="83.999" height="83.9992"/>
   <g>
    <g>
     <path class="fil1" d="M376 136l-4 3 -12 0 -4 -3 0 -29 4 -4 12 0 4 4 0 29 0 0zm-7 -3l0 -23 -7 0 0 23 7 0z"/>
     <path class="fil1" d="M400 136l-4 3 -12 0 -4 -3 0 -29 4 -4 12 0 4 4 0 29 0 0zm-6 -3l0 -23 -8 0 0 23 8 0z"/>
    </g>
    <g>
     <polygon class="fil1" points="362,100 359,92 359,100 356,100 356,84 359,84 362,93 362,84 365,84 365,100 365,100 "/>
     <path class="fil1" d="M375 100l-1 -3 -3 0 -1 3 -3 0 3 -16 4 0 4 16 -3 0zm-2 -6l-1 -5 -1 5 2 0z"/>
     <polygon class="fil1" points="390,100 387,100 387,91 385,97 382,91 382,100 379,100 379,84 382,84 385,90 387,84 390,84 "/>
     <polygon class="fil1" points="400,100 392,100 392,84 400,84 400,87 395,87 395,91 399,91 399,94 395,94 395,97 400,97 "/>
    </g>
   </g>
  </g>
  <g id="numbers">
   <rect class="fil0" x="336" width="83.999" height="83.9992"/>
   <g>
    <g>
     <path class="fil2" d="M376 52l-4 3 -12 0 -4 -3 0 -29 4 -4 12 0 4 4 0 29 0 0zm-7 -3l0 -23 -7 0 0 23 7 0z"/>
     <path class="fil2" d="M400 52l-4 3 -12 0 -4 -3 0 -29 4 -4 12 0 4 4 0 29 0 0zm-6 -3l0 -23 -8 0 0 23 8 0z"/>
    </g>
    <g>
     <polygon class="fil2" points="362,16 359,8 359,16 356,16 356,0 359,0 362,9 362,0 365,0 365,16 365,16 "/>
     <path class="fil2" d="M375 16l-1 -3 -3 0 -1 3 -3 0 3 -16 4 0 4 16 -3 0zm-2 -6l-1 -5 -1 5 2 0z"/>
     <polygon class="fil2" points="390,16 387,16 387,7 385,13 382,7 382,16 379,16 379,0 382,0 385,6 387,0 390,0 "/>
     <polygon class="fil2" points="400,16 392,16 392,0 400,0 400,3 395,3 395,7 399,7 399,10 395,10 395,13 400,13 "/>
    </g>
   </g>
  </g>
  <g id="graphics_r">
   <rect class="fil0" x="252" y="84" width="83.999" height="83.9992"/>
   <g>
    <g>
     <path class="fil1" d="M322 86l0 51 -56 0 0 -51 56 0m2 -2l-60 0 0 55 60 0 0 -55 0 0z"/>
    </g>
    <g>
     <path class="fil1" d="M304 97c0,4 3,7 6,7 4,0 7,-3 7,-7 0,-3 -3,-6 -7,-6 -3,0 -6,3 -6,6z"/>
     <path class="fil1" d="M324 139l-19 -27 -7 8 -13 -19 -20 38 59 0zm0 0z"/>
    </g>
   </g>
  </g>
  <g id="graphics">
   <rect class="fil0" x="252" width="83.999" height="83.9992"/>
   <g>
    <g>
     <path class="fil2" d="M322 2l0 51 -56 0 0 -51 56 0m2 -2l-60 0 0 55 60 0 0 -55 0 0z"/>
    </g>
    <path class="fil2" d="M304 13c0,4 3,7 6,7 4,0 7,-3 7,-7 0,-3 -3,-6 -7,-6 -3,0 -6,3 -6,6z"/>
    <path class="fil2" d="M324 55l-19 -27 -7 8 -13 -19 -21 38 60 0zm0 0z"/>
   </g>
  </g>
  <g id="colour_r">
   <rect class="fil0" x="84" y="84" width="83.999" height="83.9992"/>
   <g id="palette_4_">
    <path class="fil1" d="M126 84c-15,0 -28,12 -28,28 0,15 13,27 28,27 2,0 5,-2 5,-4 0,-1 -1,-2 -2,-3 0,-1 -1,-2 -1,-3 0,-3 2,-5 5,-5l5 0c9,0 16,-7 16,-15 0,-14 -13,-25 -28,-25zm-17 28c-2,0 -5,-2 -5,-5 0,-2 3,-4 5,-4 3,0 5,2 5,4 0,2 -2,5 -5,5zm9 -13c-2,0 -4,-2 -4,-4 0,-3 2,-5 4,-5 3,0 5,2 5,5 0,2 -2,4 -5,4zm16 0c-3,0 -5,-2 -5,-4 0,-3 2,-5 5,-5 2,0 4,2 4,5 0,2 -2,4 -4,4zm9 13c-3,0 -5,-2 -5,-5 0,-2 2,-4 5,-4 2,0 5,2 5,4 0,2 -3,5 -5,5z"/>
   </g>
  </g>
  <g id="colour">
   <rect class="fil0" x="84" width="83.999" height="83.9992"/>
   <g id="palette_3_">
    <path class="fil2" d="M126 0c-15,0 -28,12 -28,28 0,15 13,27 28,27 2,0 5,-2 5,-4 0,-1 -1,-2 -2,-3 0,-1 -1,-2 -1,-3 0,-3 2,-5 5,-5l5 0c9,0 16,-7 16,-15 0,-14 -13,-25 -28,-25zm-17 28c-2,0 -5,-2 -5,-5 0,-2 3,-4 5,-4 3,0 5,2 5,4 0,2 -2,5 -5,5zm9 -13c-2,0 -4,-2 -4,-4 0,-3 2,-5 4,-5 3,0 5,2 5,5 0,2 -2,4 -5,4zm16 0c-3,0 -5,-2 -5,-4 0,-3 2,-5 5,-5 2,0 4,2 4,5 0,2 -2,4 -4,4zm9 13c-3,0 -5,-2 -5,-5 0,-2 2,-4 5,-4 2,0 5,2 5,4 0,2 -3,5 -5,5z"/>
   </g>
  </g>
  <g id="_x0020_products_r">
   <rect class="fil0" y="84" width="83.999" height="83.9992"/>
   <path class="fil1" d="M65 91c-2,-3 -6,-5 -6,-5l-10 -2c0,0 -2,5 -7,5 -5,0 -7,-5 -7,-5l-10 2c0,0 -4,2 -6,5 -3,5 -8,12 -8,12l9 6 5 -8 0 38 34 0 0 -26 0 -12 5 8 9 -6c0,0 -5,-7 -8,-12z"/>
  </g>
  <g id="_x0020_products">
   <rect class="fil0" width="83.999" height="83.9992"/>
   <path class="fil2" d="M65 7c-2,-3 -6,-5 -6,-5l-10 -2c0,0 -2,5 -7,5 -5,0 -7,-5 -7,-5l-10 2c0,0 -4,2 -6,5 -3,5 -8,12 -8,12l9 6 5 -8 0 38 34 0 0 -26 0 -12 5 8 9 -6c0,0 -5,-7 -8,-12z"/>
  </g>
 </g>
</svg>
